<mxfile host="app.diagrams.net" modified="2021-09-08T07:54:43.558Z" agent="5.0 (Macintosh; Intel Mac OS X 10_14_0) AppleWebKit/537.36 (KHTML, like Gecko) Chrome/92.0.4515.159 Safari/537.36" etag="ywMa7DWrv5-uhtAJRA-M" version="14.9.0" type="github">
  <diagram id="uvNY4hJTyaJcTsFdf9AY" name="Page-1">
    <mxGraphModel dx="1186" dy="637" grid="1" gridSize="10" guides="1" tooltips="1" connect="1" arrows="1" fold="1" page="1" pageScale="1" pageWidth="827" pageHeight="1169" math="0" shadow="0">
      <root>
        <mxCell id="0" />
        <mxCell id="1" parent="0" />
        <mxCell id="btSUhcqfn21wtpBxIQCf-1" value="原文句子序列 + 摘要" style="rounded=0;whiteSpace=wrap;html=1;" vertex="1" parent="1">
          <mxGeometry x="90" y="200" width="140" height="60" as="geometry" />
        </mxCell>
        <mxCell id="btSUhcqfn21wtpBxIQCf-2" value="摘要内容在原文&lt;br&gt;中匹配预处理" style="rounded=0;whiteSpace=wrap;html=1;" vertex="1" parent="1">
          <mxGeometry x="280" y="200" width="110" height="60" as="geometry" />
        </mxCell>
        <mxCell id="btSUhcqfn21wtpBxIQCf-3" value="预训练模型&lt;br&gt;（训练、预测）" style="rounded=0;whiteSpace=wrap;html=1;" vertex="1" parent="1">
          <mxGeometry x="430" y="200" width="110" height="60" as="geometry" />
        </mxCell>
        <mxCell id="btSUhcqfn21wtpBxIQCf-4" value="摘要生成" style="rounded=0;whiteSpace=wrap;html=1;" vertex="1" parent="1">
          <mxGeometry x="570" y="200" width="110" height="60" as="geometry" />
        </mxCell>
      </root>
    </mxGraphModel>
  </diagram>
</mxfile>
